HIERARCHY
ROOT Hips
{
	OFFSET 0.000000 0.000000 0.000000
	CHANNELS 6 Xposition Yposition Zposition Xrotation Yrotation Zrotation
	JOINT LeftUpLeg_virtual
	{
		OFFSET 0.000000 0.000000 0.000000
		CHANNELS 3 Xrotation Yrotation Zrotation
		JOINT LeftUpLeg
		{
			OFFSET 11.394100 -6.187798 -0.413800
			CHANNELS 3 Xrotation Yrotation Zrotation
			JOINT LeftLeg
			{
				OFFSET 0.430247 -32.302673 3.732800
				CHANNELS 3 Xrotation Yrotation Zrotation
				JOINT LeftFoot
				{
					OFFSET -0.430247 -48.264931 -6.423300
					CHANNELS 3 Xrotation Yrotation Zrotation
					JOINT LeftToeBase
					{
						OFFSET 4.230900 -16.068199 23.438400
						CHANNELS 3 Xrotation Yrotation Zrotation
						JOINT LeftToe_End
						{
							OFFSET 4.510700 0.695400 19.974600
							CHANNELS 3 Xrotation Yrotation Zrotation
							End Site
							{
								OFFSET 0 0 0
							}
						}
					}
				}
			}
		}
	}
	JOINT RightUpLeg_virtual
	{
		OFFSET 0.000000 0.000000 0.000000
		CHANNELS 3 Xrotation Yrotation Zrotation
		JOINT RightUpLeg
		{
			OFFSET -11.333700 -6.187798 -0.413800
			CHANNELS 3 Xrotation Yrotation Zrotation
			JOINT RightLeg
			{
				OFFSET -0.430392 -32.302628 3.733000
				CHANNELS 3 Xrotation Yrotation Zrotation
				JOINT RightFoot
				{
					OFFSET 0.430392 -48.264973 -6.423500
					CHANNELS 3 Xrotation Yrotation Zrotation
					JOINT RightToeBase
					{
						OFFSET -4.230900 -16.068199 23.438400
						CHANNELS 3 Xrotation Yrotation Zrotation
						JOINT RightToe_End
						{
							OFFSET -4.510700 0.695400 19.974600
							CHANNELS 3 Xrotation Yrotation Zrotation
							End Site
							{
								OFFSET 0 0 0
							}
						}
					}
				}
			}
		}
	}
	JOINT Spine_virtual
	{
		OFFSET 0.000000 0.000000 0.000000
		CHANNELS 3 Xrotation Yrotation Zrotation
		JOINT Spine
		{
			OFFSET -0.002400 12.777504 0.315300
			CHANNELS 3 Xrotation Yrotation Zrotation
			JOINT Spine1
			{
				OFFSET -0.002067 5.816869 0.032633
				CHANNELS 3 Xrotation Yrotation Zrotation
				JOINT Spine1_split
				{
					OFFSET -0.002067 5.816869 0.032633
					CHANNELS 3 Xrotation Yrotation Zrotation
					JOINT Spine2
					{
						OFFSET -0.002067 5.816869 0.032633
						CHANNELS 3 Xrotation Yrotation Zrotation
						JOINT Neck_virtual
						{
							OFFSET 0.000000 0.000000 0.000000
							CHANNELS 3 Xrotation Yrotation Zrotation
							JOINT Neck
							{
								OFFSET -0.003700 21.199493 -0.826900
								CHANNELS 3 Xrotation Yrotation Zrotation
								JOINT Head
								{
									OFFSET 0.000000 20.442200 4.834800
									CHANNELS 3 Xrotation Yrotation Zrotation
									JOINT HeadTop_End
									{
										OFFSET 0.000000 34.668396 4.968400
										CHANNELS 3 Xrotation Yrotation Zrotation
										End Site
										{
											OFFSET 0 0 0
										}
									}
								}
							}
						}
						JOINT LeftShoulder_virtual
						{
							OFFSET 0.000000 0.000000 0.000000
							CHANNELS 3 Xrotation Yrotation Zrotation
							JOINT LeftShoulder
							{
								OFFSET 3.288150 8.794197 -1.372250
								CHANNELS 3 Xrotation Yrotation Zrotation
								JOINT LeftShoulder_split
								{
									OFFSET 3.288150 8.794197 -1.372250
									CHANNELS 3 Xrotation Yrotation Zrotation
									JOINT LeftArm
									{
										OFFSET 11.953299 -2.279007 -0.146200
										CHANNELS 3 Xrotation Yrotation Zrotation
										JOINT LeftForeArm
										{
											OFFSET 18.448900 0.000000 0.000000
											CHANNELS 3 Xrotation Yrotation Zrotation
											JOINT LeftHand
											{
												OFFSET 29.527798 0.000000 0.000000
												CHANNELS 3 Xrotation Yrotation Zrotation
												End Site
												{
													OFFSET 0 0 0
												}
											}
										}
									}
								}
							}
						}
						JOINT RightShoulder_virtual
						{
							OFFSET 0.000000 0.000000 0.000000
							CHANNELS 3 Xrotation Yrotation Zrotation
							JOINT RightShoulder
							{
								OFFSET -3.249400 8.794197 -1.372250
								CHANNELS 3 Xrotation Yrotation Zrotation
								JOINT RightShoulder_split
								{
									OFFSET -3.249400 8.794197 -1.372250
									CHANNELS 3 Xrotation Yrotation Zrotation
									JOINT RightArm
									{
										OFFSET -11.953299 -2.279007 -0.146200
										CHANNELS 3 Xrotation Yrotation Zrotation
										JOINT RightForeArm
										{
											OFFSET -18.448900 0.000000 0.000000
											CHANNELS 3 Xrotation Yrotation Zrotation
											JOINT RightHand
											{
												OFFSET -29.527802 0.000000 0.000000
												CHANNELS 3 Xrotation Yrotation Zrotation
												End Site
												{
													OFFSET 0 0 0
												}
											}
										}
									}
								}
							}
						}
					}
				}
			}
		}
	}
}
MOTION
Frames: 7
Frame Time: 0.03333333
0.067683 126.155678 0.949308 0.000000 0.000000 0.000000 4.532004 -38.377843 4.700622 -83.693743 -21.022023 27.809313 62.866229 0.754825 7.369731 15.174305 -0.066830 1.090312 -0.000259 -0.007730 0.000034 0.000000 0.000000 0.000000 4.532004 -38.377843 4.700622 -144.628696 -42.453263 -11.899660 121.459833 13.358463 -14.166839 32.640053 5.092510 33.047235 -0.000202 0.000201 -0.000348 0.000000 0.000000 0.000000 4.532004 -38.377843 4.700622 30.124952 -4.061453 -10.117671 12.785630 1.087589 -3.033125 0.000000 0.000000 0.000000 0.000000 0.000000 0.000000 12.733211 1.050405 -3.241307 -8.164135 20.999270 -13.038092 -23.845982 13.475285 4.639315 0.000000 0.000000 0.000000 12.733211 1.050405 -3.241307 9.829636 -9.813816 -1.458552 0.000000 0.000000 0.000000 -62.537717 12.081210 3.106153 46.615570 -25.819860 31.530096 0.000000 0.000000 0.000000 12.733211 1.050405 -3.241307 14.990496 20.897818 -4.160223 0.000000 0.000000 0.000000 -28.001556 -11.258121 -3.541425 -45.194542 43.244007 34.197695 0.000000 0.000000 0.000000 
0.061660 126.133835 0.996189 0.000000 0.000000 0.000000 4.402789 -37.895939 4.486316 -83.970790 -20.902503 27.457439 62.985846 2.052088 8.070958 15.408048 -0.734256 2.774473 0.215765 -0.007780 -0.000026 0.000000 0.000000 0.000000 4.402789 -37.895939 4.486316 -145.219548 -42.347682 -11.820621 121.639276 13.069043 -14.171237 33.904458 5.384070 33.712779 -0.000207 0.000185 -0.000349 0.000000 0.000000 0.000000 4.402789 -37.895939 4.486316 30.124949 -4.130688 -10.111940 12.798051 1.087546 -3.033112 0.000000 0.000000 0.000000 0.000000 0.000000 0.000000 12.745774 1.050446 -3.241321 -8.938867 20.977125 -13.011274 -25.364811 13.878976 5.705351 0.000000 0.000000 0.000000 12.745774 1.050446 -3.241321 10.133433 -9.721069 -0.028974 0.000000 0.000000 0.000000 -63.361370 10.080289 4.356415 46.550041 -25.690309 31.376748 0.000000 0.000000 0.000000 12.745774 1.050446 -3.241321 15.618578 20.231678 -5.707893 0.000000 0.000000 0.000000 -29.640111 -12.140664 -3.854857 -46.313771 44.391807 35.807813 0.000000 0.000000 0.000000 
0.099147 126.126465 0.994600 0.000000 0.000000 0.000000 4.282916 -37.470698 4.241643 -84.088802 -21.049962 27.454234 63.099282 1.731491 7.899939 15.786304 -0.714705 3.051150 0.180620 -0.007788 0.000017 0.000000 0.000000 0.000000 4.282916 -37.470698 4.241643 -145.890600 -42.296592 -11.903919 121.904151 12.673059 -14.147091 34.471254 5.541667 33.954530 -0.000215 0.000171 -0.000368 0.000000 0.000000 0.000000 4.282916 -37.470698 4.241643 30.138012 -4.141396 -10.083261 12.836348 1.087551 -3.033105 0.000000 0.000000 0.000000 0.000000 0.000000 0.000000 12.784350 1.050454 -3.241321 -8.866085 20.938426 -12.983741 -25.347682 13.462036 5.688113 0.000000 0.000000 0.000000 12.784350 1.050454 -3.241321 10.430034 -9.904275 1.491895 0.000000 0.000000 0.000000 -64.152593 7.747712 5.238489 46.442442 -25.463690 31.110613 0.000000 0.000000 0.000000 12.784350 1.050454 -3.241321 16.239448 19.506942 -7.293197 0.000000 0.000000 0.000000 -31.353375 -13.054805 -4.253626 -47.590866 45.600809 37.608227 0.000000 0.000000 0.000000 
0.143924 126.116714 0.980034 0.000000 0.000000 0.000000 4.164795 -37.041171 3.995594 -84.265608 -21.236463 27.465992 63.268008 1.289328 7.663761 16.195545 -0.584198 3.248731 0.203216 -0.007765 0.000023 0.000000 0.000000 0.000000 4.164795 -37.041171 3.995594 -146.539974 -42.249289 -11.988859 122.148398 12.276486 -14.124981 35.016194 5.711294 34.199512 -0.000210 0.000203 -0.000343 0.000000 0.000000 0.000000 4.164795 -37.041171 3.995594 30.160176 -4.159259 -10.045827 12.896404 1.087571 -3.033109 0.000000 0.000000 0.000000 0.000000 0.000000 0.000000 12.844857 1.047240 -3.240659 -8.768868 20.881833 -13.000375 -25.355817 13.108480 5.575852 0.000000 0.000000 0.000000 12.844857 1.047240 -3.240659 10.741667 -10.297288 3.065304 0.000000 0.000000 0.000000 -64.952319 5.309771 5.718526 46.310011 -25.181632 30.784117 0.000000 0.000000 0.000000 12.844857 1.047240 -3.240659 16.860653 18.882280 -8.907518 0.000000 0.000000 0.000000 -33.079385 -13.866478 -4.670740 -48.903956 46.741471 39.420553 0.000000 0.000000 0.000000 
0.196012 126.105568 0.960882 0.000000 0.000000 0.000000 4.046777 -36.601529 3.743849 -84.502199 -21.451942 27.451724 63.456713 1.077723 7.551578 16.649686 -0.719678 3.515125 0.204460 -0.007758 -0.000012 0.000000 0.000000 0.000000 4.046777 -36.601529 3.743849 -147.138121 -42.206099 -12.076131 122.356897 11.869440 -14.105251 35.573930 5.867381 34.390778 -0.000175 0.000204 -0.000317 0.000000 0.000000 0.000000 4.046777 -36.601529 3.743849 30.192776 -4.182599 -10.005038 12.974677 1.072767 -3.030067 0.000000 0.000000 0.000000 0.000000 0.000000 0.000000 12.923671 1.030318 -3.237160 -8.657817 20.860330 -12.990604 -25.298876 12.873068 5.441936 0.000000 0.000000 0.000000 12.923671 1.030318 -3.237160 11.083778 -10.832096 4.652777 0.000000 0.000000 0.000000 -65.798873 3.000790 5.773099 46.169640 -24.886054 30.443888 0.000000 0.000000 0.000000 12.923671 1.030318 -3.237160 17.482831 18.421215 -10.518590 0.000000 0.000000 0.000000 -34.745760 -14.448051 -5.024513 -50.097020 47.691953 41.032310 0.000000 0.000000 0.000000 
0.252234 126.093697 0.945658 0.000000 0.000000 0.000000 3.942444 -36.159544 3.508283 -84.784839 -21.668374 27.412952 63.653415 1.057577 7.542078 17.127203 -1.031365 3.848643 0.216753 -0.007764 0.000005 0.000000 0.000000 0.000000 3.942444 -36.159544 3.508283 -147.682979 -42.151761 -12.146984 122.543019 11.458242 -14.087052 36.108697 6.012696 34.555723 -0.000224 0.000222 -0.000342 0.000000 0.000000 0.000000 3.942444 -36.159544 3.508283 30.235707 -4.210029 -9.965789 13.067674 1.040946 -3.023474 0.000000 0.000000 0.000000 0.000000 0.000000 0.000000 13.017335 1.001594 -3.231238 -8.536950 20.882581 -12.988339 -25.238007 12.699368 5.340846 0.000000 0.000000 0.000000 13.017335 1.001594 -3.231238 11.463784 -11.439427 6.216095 0.000000 0.000000 0.000000 -66.711564 1.058997 5.392885 46.042817 -24.618134 30.135860 0.000000 0.000000 0.000000 13.017335 1.001594 -3.231238 18.102791 18.149981 -12.084709 0.000000 0.000000 0.000000 -36.214455 -14.257165 -4.941022 -50.983507 48.344612 42.206034 0.000000 0.000000 0.000000 
0.299695 126.080269 0.947559 0.000000 0.000000 0.000000 3.866659 -35.837197 3.335588 -85.092949 -21.851899 27.372096 63.881291 1.026222 7.527006 17.554266 -1.221564 4.084094 0.208673 -0.007744 0.000019 0.000000 0.000000 0.000000 3.866659 -35.837197 3.335588 -148.239161 -42.110275 -12.197716 122.719839 11.156704 -14.071676 36.690728 6.164314 34.682997 -0.000221 0.000176 -0.000345 0.000000 0.000000 0.000000 3.866659 -35.837197 3.335588 30.290257 -4.250008 -9.933319 13.172025 1.009495 -3.016944 0.000000 0.000000 0.000000 0.000000 0.000000 0.000000 13.122235 0.969393 -3.224593 -8.413511 20.921831 -12.974225 -25.130916 12.655774 5.208243 0.000000 0.000000 0.000000 13.122235 0.969393 -3.224593 11.880475 -12.049746 7.717224 0.000000 0.000000 0.000000 -67.652518 -0.498955 4.674152 45.960029 -24.440285 29.930251 0.000000 0.000000 0.000000 13.122235 0.969393 -3.224593 18.719416 18.097776 -13.565926 0.000000 0.000000 0.000000 -37.406894 -13.208152 -4.550487 -50.698343 48.132193 41.823922 0.000000 0.000000 0.000000 
